<?xml version="1.0" standalone="no"?>
<!DOCTYPE svg PUBLIC "-//W3C//DTD SVG 20010904//EN"
 "http://www.w3.org/TR/2001/REC-SVG-20010904/DTD/svg10.dtd">
<svg version="1.0" xmlns="http://www.w3.org/2000/svg"
 width="900.000000pt" height="232.000000pt" viewBox="0 0 900.000000 232.000000"
 preserveAspectRatio="xMidYMid meet">

<g transform="translate(0.000000,232.000000) scale(0.100000,-0.100000)"
fill="#ffffff" stroke="none">
<path d="M3260 1861 c-165 -36 -301 -111 -408 -225 -71 -77 -111 -144 -148
-251 -25 -72 -28 -94 -29 -220 0 -162 13 -225 75 -351 141 -289 489 -439 845
-365 173 36 297 103 412 224 125 132 183 283 183 476 0 224 -72 396 -224 538
-79 74 -162 122 -276 158 -115 37 -303 44 -430 16z m326 -50 c96 -45 165 -100
224 -179 66 -86 115 -190 142 -300 29 -120 29 -304 -1 -416 -88 -331 -356
-519 -623 -436 -142 44 -278 169 -353 325 -62 127 -76 188 -82 350 -4 120 -2
153 16 229 52 216 195 390 369 447 90 30 219 22 308 -20z"/>
<path d="M90 1850 c0 -5 18 -14 40 -20 51 -14 102 -65 138 -138 16 -31 139
-324 273 -650 207 -502 247 -592 263 -590 14 2 38 58 112 268 212 598 298 829
336 900 60 114 135 184 231 214 9 3 17 10 17 16 0 6 -76 10 -220 10 -137 0
-220 -4 -220 -10 0 -5 11 -12 25 -16 33 -8 72 -55 85 -102 14 -53 12 -168 -4
-227 -18 -63 -271 -773 -278 -780 -7 -8 -405 960 -418 1018 -12 58 -2 84 37
89 14 2 28 9 31 16 3 9 -46 12 -222 12 -138 0 -226 -4 -226 -10z"/>
<path d="M1850 1851 c0 -5 19 -15 43 -23 81 -25 78 2 75 -685 -3 -593 -3 -602
-24 -630 -12 -16 -36 -31 -57 -36 -81 -19 -28 -27 183 -27 133 0 220 4 220 10
0 5 -15 12 -34 16 -19 3 -45 17 -58 31 l-23 25 0 623 0 623 24 26 c14 14 32
26 42 26 10 0 24 3 33 6 47 18 -5 24 -204 24 -125 0 -220 -4 -220 -9z"/>
<path d="M4520 1850 c0 -5 18 -14 39 -20 43 -11 121 -68 164 -119 l27 -33 0
-446 c0 -491 -5 -541 -58 -636 -36 -63 -96 -111 -151 -120 -22 -3 -41 -11 -41
-16 0 -6 95 -10 260 -10 143 0 260 4 260 9 0 5 -20 14 -45 20 -54 14 -118 68
-147 125 -45 89 -48 117 -48 586 0 437 0 444 19 425 11 -11 220 -276 466 -590
347 -443 451 -570 468 -570 l22 0 5 575 c4 377 9 585 16 605 35 95 104 178
161 191 53 11 63 15 63 25 0 5 -106 9 -260 9 -163 0 -260 -4 -260 -10 0 -5 12
-12 28 -15 118 -25 188 -114 212 -271 6 -42 9 -214 8 -442 l-3 -374 -429 556
-429 556 -174 0 c-104 0 -173 -4 -173 -10z"/>
<path d="M6382 1728 c-18 -73 -32 -139 -32 -145 0 -27 19 -11 49 42 45 80 92
127 163 166 l63 34 248 3 c136 2 247 1 247 -2 0 -2 -181 -305 -401 -673 -221
-367 -404 -676 -407 -686 -4 -16 23 -17 469 -17 l474 0 33 138 c18 75 32 140
32 145 0 21 -22 1 -49 -48 -49 -86 -96 -131 -179 -172 l-75 -38 -245 -4 c-219
-3 -244 -2 -239 12 3 9 187 316 407 683 221 366 404 673 407 680 4 12 -69 14
-464 14 l-469 0 -32 -132z"/>
<path d="M8276 1852 c-3 -5 -102 -258 -221 -563 -119 -305 -230 -580 -247
-611 -56 -106 -132 -174 -223 -199 -19 -6 -33 -14 -30 -20 9 -13 445 -12 445
1 0 6 -14 13 -30 17 -38 7 -77 53 -86 99 -3 19 -4 74 -2 122 4 70 12 107 45
192 l40 105 237 0 238 0 79 -205 c57 -150 78 -218 79 -253 0 -49 -1 -50 -52
-61 -16 -4 -28 -11 -28 -16 0 -6 85 -10 225 -10 222 0 269 7 187 29 -54 15
-105 73 -152 174 -30 64 -411 1043 -463 1190 -7 18 -32 23 -41 9z m43 -539
l107 -278 -107 -3 c-59 -1 -159 -1 -222 0 l-113 3 109 283 c61 155 112 280
115 278 2 -3 52 -130 111 -283z"/>
</g>
</svg>
