<?xml version="1.0" standalone="no"?>
<!DOCTYPE svg PUBLIC "-//W3C//DTD SVG 20010904//EN"
 "http://www.w3.org/TR/2001/REC-SVG-20010904/DTD/svg10.dtd">
<svg version="1.0" xmlns="http://www.w3.org/2000/svg"
 width="900.000000pt" height="966.000000pt" viewBox="0 0 900.000000 966.000000"
 preserveAspectRatio="xMidYMid meet">

<g transform="translate(0.000000,966.000000) scale(0.100000,-0.100000)"
fill="#ffffff" stroke="none">
<path d="M4420 9218 c-99 -109 -571 -589 -1340 -1360 l-694 -698 -493 0 c-423
0 -493 -2 -493 -14 0 -8 4 -17 9 -21 11 -6 101 -175 222 -417 44 -86 83 -160
89 -163 5 -3 10 -14 10 -23 -1 -9 -376 -395 -835 -857 -459 -462 -834 -842
-835 -845 0 -3 467 -475 1038 -1049 570 -574 1037 -1049 1037 -1054 0 -6 -88
-9 -237 -8 -137 1 -238 -2 -238 -7 0 -16 34 -40 68 -47 77 -16 198 -110 274
-212 l39 -53 217 0 217 0 650 -652 c660 -663 1245 -1256 1323 -1341 23 -26 46
-47 50 -47 4 0 466 459 1027 1020 l1020 1020 213 0 213 0 17 32 c49 93 195
211 297 240 22 6 46 17 54 24 33 30 1 34 -235 31 -129 -1 -233 1 -232 5 3 8
743 758 1575 1597 271 273 492 498 493 501 0 5 -296 304 -1258 1272 l-414 416
50 99 c146 287 247 481 264 502 40 53 56 51 -465 51 l-483 0 -690 692 c-962
966 -1437 1437 -1449 1438 -5 0 -39 -33 -75 -72z m320 -355 c234 -238 1175
-1190 1471 -1488 109 -110 199 -204 199 -208 0 -4 -267 -8 -592 -9 l-593 -3
-6 -80 c-7 -100 -21 -151 -67 -239 -63 -121 -224 -270 -387 -357 -48 -26 -75
-52 -64 -64 4 -3 301 -5 662 -5 432 0 658 -3 662 -10 3 -5 -5 -31 -19 -57 -22
-43 -87 -184 -144 -313 -11 -25 -46 -99 -77 -165 -77 -163 -112 -237 -119
-255 -3 -8 -10 -22 -15 -30 -5 -8 -37 -76 -71 -150 -69 -150 -71 -153 -334
-715 -24 -49 -69 -146 -101 -215 -31 -69 -62 -132 -67 -140 -4 -8 -11 -24 -15
-35 -4 -11 -26 -58 -50 -105 -24 -47 -43 -89 -43 -93 0 -5 -27 -64 -59 -131
-127 -260 -201 -417 -201 -426 0 -4 -21 -51 -47 -103 -27 -52 -70 -145 -98
-206 -36 -79 -55 -111 -67 -111 -10 0 -18 5 -18 11 0 5 -19 49 -41 97 -23 48
-59 125 -81 172 -22 47 -64 139 -95 205 -31 66 -73 156 -94 200 -20 44 -40 90
-44 102 -3 11 -12 27 -20 33 -8 7 -15 18 -15 26 0 7 -24 64 -54 126 -30 62
-89 187 -131 278 -43 91 -95 201 -115 245 -43 91 -157 335 -205 440 -17 39
-67 144 -110 235 -43 91 -86 183 -96 205 -10 22 -45 99 -79 170 -87 183 -110
233 -110 239 0 6 -127 273 -181 379 -22 43 -37 82 -34 88 4 6 243 9 637 9 382
0 635 3 641 9 15 15 -2 32 -52 54 -56 25 -251 212 -311 299 -61 90 -106 222
-112 333 l-3 50 -587 3 c-444 2 -588 5 -588 14 0 6 428 440 952 964 745 746
955 951 967 944 9 -4 108 -102 221 -217z m-2913 -2527 c10 -18 62 -118 116
-222 53 -104 101 -196 105 -204 5 -8 15 -26 23 -40 8 -14 45 -86 84 -161 91
-177 229 -445 354 -684 55 -104 133 -256 174 -337 41 -81 79 -153 84 -160 6
-7 53 -96 104 -197 52 -101 123 -239 159 -307 36 -69 105 -202 154 -297 49
-94 93 -177 98 -183 5 -7 47 -88 94 -180 143 -282 279 -543 287 -551 11 -10
48 -95 44 -100 -3 -2 -307 -3 -678 -3 l-674 0 -1047 1048 c-577 576 -1048
1054 -1048 1062 0 15 1528 1550 1542 1550 4 0 16 -15 25 -34z m6145 -733 c423
-423 768 -775 768 -783 0 -8 -471 -486 -1047 -1062 l-1048 -1048 -672 0 c-405
0 -673 4 -673 9 0 9 97 200 256 506 46 88 125 239 175 335 50 96 137 265 195
375 57 110 135 261 174 335 39 74 113 216 164 315 107 205 173 331 346 665 67
129 158 305 203 390 44 85 105 202 135 260 29 58 79 152 110 210 31 58 73 140
94 183 21 42 42 77 46 77 4 0 352 -345 774 -767z m-4095 -3221 c14 -9 69 -111
203 -377 50 -99 95 -184 100 -190 5 -6 45 -82 90 -170 185 -364 221 -430 230
-430 10 0 30 36 159 285 45 85 122 234 172 330 50 96 129 248 175 338 46 90
93 177 104 193 l21 29 595 0 c327 0 594 -3 594 -7 0 -3 -78 -86 -174 -182
-449 -454 -1223 -1238 -1419 -1436 l-217 -220 -910 910 c-500 501 -910 916
-910 923 0 9 124 12 588 12 323 0 592 -4 599 -8z"/>
</g>
</svg>
